<svg id="Layer_1" enable-background="new 0 0 512 512" height="512" viewBox="0 0 512 512" width="512" xmlns="http://www.w3.org/2000/svg" fill="#FFF"><g><path d="m394 512h-276c-25.364 0-46-20.636-46-46v-420c0-25.364 20.636-46 46-46h276c25.364 0 46 20.636 46 46v420c0 25.364-20.636 46-46 46zm-276-480c-7.72 0-14 6.28-14 14v420c0 7.72 6.28 14 14 14h276c7.72 0 14-6.28 14-14v-420c0-7.72-6.28-14-14-14z"/><path d="m332 200h-152c-19.851 0-36-16.149-36-36v-40c0-19.851 16.149-36 36-36h152c19.851 0 36 16.149 36 36v40c0 19.851-16.149 36-36 36zm-152-80c-2.206 0-4 1.794-4 4v40c0 2.206 1.794 4 4 4h152c2.206 0 4-1.794 4-4v-40c0-2.206-1.794-4-4-4z"/><path d="m176.02 288c-8.836 0-16.005-7.164-16.005-16s7.159-16 15.995-16h.01c8.837 0 16 7.164 16 16s-7.164 16-16 16z"/><path d="m256.02 288c-8.836 0-16.005-7.164-16.005-16s7.159-16 15.995-16h.01c8.837 0 16 7.164 16 16s-7.164 16-16 16z"/><path d="m336.02 288c-8.836 0-16.005-7.164-16.005-16s7.159-16 15.995-16h.01c8.837 0 16 7.164 16 16s-7.164 16-16 16z"/><path d="m176.02 360c-8.836 0-16.005-7.164-16.005-16s7.159-16 15.995-16h.01c8.837 0 16 7.164 16 16s-7.164 16-16 16z"/><path d="m256.02 360c-8.836 0-16.005-7.164-16.005-16s7.159-16 15.995-16h.01c8.837 0 16 7.164 16 16s-7.164 16-16 16z"/><path d="m336.02 360c-8.836 0-16.005-7.164-16.005-16s7.159-16 15.995-16h.01c8.837 0 16 7.164 16 16s-7.164 16-16 16z"/><path d="m176.02 432c-8.836 0-16.005-7.164-16.005-16s7.159-16 15.995-16h.01c8.837 0 16 7.164 16 16s-7.164 16-16 16z"/><path d="m256.02 432c-8.836 0-16.005-7.164-16.005-16s7.159-16 15.995-16h.01c8.837 0 16 7.164 16 16s-7.164 16-16 16z"/><path d="m336.02 432c-8.836 0-16.005-7.164-16.005-16s7.159-16 15.995-16h.01c8.837 0 16 7.164 16 16s-7.164 16-16 16z"/></g></svg>