<svg id="Capa_1" enable-background="new 0 0 512 512" height="512" viewBox="0 0 512 512" width="512" xmlns="http://www.w3.org/2000/svg" fill="#fff"><g><path d="m451 181h-30c-8.284 0-15 6.716-15 15v135h-15v-15c0-24.813-20.187-45-45-45h-75v-31h52.041c31.885 0 57.132-27.113 54.86-58.919l-9.949-139.287c-1.674-23.436-21.389-41.794-44.886-41.794h-134.132c-23.496 0-43.212 18.358-44.886 41.794l-9.949 139.288c-2.272 31.804 22.974 58.918 54.86 58.918h52.041v31h-75c-24.813 0-45 20.187-45 45v15h-15v-135c0-8.284-6.716-15-15-15h-30c-8.284 0-15 6.716-15 15s6.716 15 15 15h15v135c0 8.284 6.716 15 15 15h120v61h-75c-24.813 0-45 20.187-45 45s20.187 45 45 45c31.031 0 52.77-30.818 42.42-60h35.16c-10.37 29.236 11.456 60 42.42 60 31.031 0 52.77-30.818 42.42-60h35.16c-10.37 29.236 11.456 60 42.42 60 24.813 0 45-20.187 45-45s-20.187-45-45-45h-75v-61h120c8.284 0 15-6.716 15-15v-135h15c8.284 0 15-6.716 15-15s-6.716-15-15-15zm-286.978 2.219 9.949-139.288c.558-7.812 7.131-13.931 14.963-13.931h134.133c7.832 0 14.404 6.119 14.962 13.932l9.949 139.287c1.029 14.4-10.328 26.782-24.937 26.782h-134.082c-14.437-.001-25.977-12.212-24.937-26.782zm-13.022 132.781c0-8.271 6.729-15 15-15h180c8.271 0 15 6.729 15 15v15c-43.783 0-166.307 0-210 0zm0 151c0 8.271-6.729 15-15 15s-15-6.729-15-15 6.729-15 15-15 15 6.729 15 15zm105 15c-8.271 0-15-6.729-15-15s6.729-15 15-15 15 6.729 15 15-6.729 15-15 15zm120 0c-8.271 0-15-6.729-15-15s6.729-15 15-15 15 6.729 15 15-6.729 15-15 15zm-105-60h-30v-61h30z"/><path d="m216 106h80c8.284 0 15-6.716 15-15s-6.716-15-15-15h-80c-8.284 0-15 6.716-15 15s6.716 15 15 15z"/><path d="m300 136h-88c-8.284 0-15 6.716-15 15s6.716 15 15 15h88c8.284 0 15-6.716 15-15s-6.716-15-15-15z"/></g></svg>