<?xml version="1.0"?>
<svg xmlns="http://www.w3.org/2000/svg" id="Layer_1" data-name="Layer 1" viewBox="0 0 512 512" width="512" height="512" fill="#fff"><path d="M170.5,316.417H436.534a24.458,24.458,0,0,0,24.431-24.43v-57a37.671,37.671,0,0,0-.561-6.461c-.012-.076-.024-.153-.034-.229L446.378,118.164a20.035,20.035,0,0,0-19.753-16.511H316.616a9.024,9.024,0,0,0-9,8.929l-.762,96.619a5,5,0,0,1-5,4.96H170.5ZM318.535,126.408a15.017,15.017,0,0,1,15-15H418.21A14.975,14.975,0,0,1,433.124,124.8l10.007,92.836a5,5,0,0,1-4.972,5.536H394.444v49.506a5,5,0,0,1-5,5H323.535a5,5,0,0,1-5-5ZM192.792,231.992h27.9a5,5,0,0,1,0,10h-27.9a5,5,0,0,1,0-10Zm0,18h27.9a5,5,0,1,1,0,10h-27.9a5,5,0,1,1,0-10Zm0,18h27.9a5,5,0,0,1,0,10h-27.9a5,5,0,1,1,0-10Z"/><path d="M74.828,90.91,160.5,269.432V208.6L83.421,85.351A19.139,19.139,0,0,1,74.828,90.91Z"/><path d="M423.181,125.872a4.991,4.991,0,0,0-4.971-4.464H394.444v91.765h38.147Z"/><path d="M186.53,146.128c.047.033.095.068.141.1l73.066,55.929h32.9l-99.025-65.723c-.045-.03-.089-.06-.132-.091a6,6,0,1,0-6.955,9.781Z"/><rect x="328.535" y="243.87" width="55.909" height="23.809"/><path d="M384.444,121.408H333.535a5.006,5.006,0,0,0-5,5V233.87h55.909Z"/><rect x="236.76" y="326.417" width="135.718" height="11.515"/><path d="M272.6,352.236a11,11,0,0,1,9.283,5.1h3.4a10.995,10.995,0,0,1,18.567,0h3.4a10.994,10.994,0,0,1,18.566,0h3.4a10.95,10.95,0,0,1,15-3.475v-5.933H266.779v5.994A10.919,10.919,0,0,1,272.6,352.236Z"/><path d="M205.7,394.609a15.09,15.09,0,1,0,15.09,15.09A15.106,15.106,0,0,0,205.7,394.609Z"/><path d="M353.359,394.609a15.09,15.09,0,1,0,15.09,15.09A15.106,15.106,0,0,0,353.359,394.609Z"/><path d="M472.847,404.7h-.476a45.883,45.883,0,0,0-3.645-13.673l.4-.229a5,5,0,0,0-5-8.66l-.39.226a46.612,46.612,0,0,0-10-10.033l.214-.37a5,5,0,0,0-8.66-5l-.2.349a45.894,45.894,0,0,0-13.7-3.693v-.38a5,5,0,0,0-10,0v.1H409.414v-.1a5,5,0,0,0-10,0v.1h-11.97v-.1a5,5,0,0,0-10,0v.1H365.475v-.1a5,5,0,0,0-10,0v.1h-11.97v-.1a5,5,0,0,0-10,0v.1h-11.97v-.1a5,5,0,0,0-10,0v.1h-11.97v-.1a5,5,0,0,0-10,0v.1H277.6v-.1a5,5,0,0,0-10,0v.1h-11.97v-.1a5,5,0,0,0-10,0v.1h-11.97v-.1a5,5,0,0,0-10,0v.1H210.209v-.1a5,5,0,0,0-10,0v.364a45.885,45.885,0,0,0-13.728,3.663l-.174-.3a5,5,0,1,0-8.66,5l.175.305a46.638,46.638,0,0,0-10.051,10.045l-.3-.173a5,5,0,0,0-5,8.66l.294.17a45.877,45.877,0,0,0-3.672,13.732h-.347a5,5,0,1,0,0,10h.37a45.924,45.924,0,0,0,3.715,13.693l-.36.209a5,5,0,1,0,5,8.659l.391-.226A46.682,46.682,0,0,0,177.9,447l-.251.435a5,5,0,1,0,8.66,5l.259-.449a45.871,45.871,0,0,0,13.643,3.625v.549a5,5,0,0,0,10,0v-.289h13.448v.289a5,5,0,0,0,10,0v-.289h11.97v.289a5,5,0,0,0,10,0v-.289H267.6v.289a5,5,0,1,0,10,0v-.289h11.968v.289a5,5,0,0,0,10,0v-.289h11.97v.289a5,5,0,0,0,10,0v-.289h11.97v.289a5,5,0,0,0,10,0v-.289h11.97v.289a5,5,0,0,0,10,0v-.289h11.969v.289a5,5,0,0,0,10,0v-.289h11.97v.289a5,5,0,1,0,10,0v-.289h11.969v.289a5,5,0,0,0,10,0V455.6A45.881,45.881,0,0,0,445,451.942l.286.5a5,5,0,0,0,8.66-5l-.289-.5a46.648,46.648,0,0,0,9.981-9.956l.483.279a5,5,0,1,0,5-8.659l-.463-.267a45.871,45.871,0,0,0,3.689-13.635h.5a5,5,0,0,0,0-10Zm-242.519,9.767a24.746,24.746,0,0,1-.918,3.418,4.979,4.979,0,0,1-4.8,8.27,25.161,25.161,0,0,1-2.477,2.475,4.982,4.982,0,0,1-8.274,4.788,24.7,24.7,0,0,1-3.4.911,4.968,4.968,0,0,1-9.533,0,24.774,24.774,0,0,1-3.4-.911,4.982,4.982,0,0,1-8.275-4.789,25.472,25.472,0,0,1-2.476-2.474,4.981,4.981,0,0,1-4.8-8.27,25.177,25.177,0,0,1-.918-3.418,4.968,4.968,0,0,1,0-9.534,25.137,25.137,0,0,1,.918-3.418,4.969,4.969,0,0,1,4.783-8.255,25.316,25.316,0,0,1,2.489-2.489,4.969,4.969,0,0,1,8.255-4.783,24.811,24.811,0,0,1,3.418-.918,4.968,4.968,0,0,1,9.533,0,24.85,24.85,0,0,1,3.418.918,4.968,4.968,0,0,1,8.254,4.782,25.346,25.346,0,0,1,2.491,2.49,4.969,4.969,0,0,1,4.782,8.255,24.746,24.746,0,0,1,.918,3.418,4.968,4.968,0,0,1,0,9.534Zm73.831,0a24.746,24.746,0,0,1-.918,3.418,4.979,4.979,0,0,1-4.8,8.27,25.14,25.14,0,0,1-2.476,2.474,4.983,4.983,0,0,1-8.275,4.789,24.774,24.774,0,0,1-3.4.911,4.968,4.968,0,0,1-9.533,0,24.749,24.749,0,0,1-3.4-.911,4.981,4.981,0,0,1-8.273-4.788,25.281,25.281,0,0,1-2.478-2.475,4.981,4.981,0,0,1-4.8-8.27,25.031,25.031,0,0,1-.918-3.418,4.969,4.969,0,0,1,0-9.534,25.031,25.031,0,0,1,.918-3.418,4.969,4.969,0,0,1,4.783-8.255,25.129,25.129,0,0,1,2.491-2.49,4.968,4.968,0,0,1,8.254-4.782,24.811,24.811,0,0,1,3.418-.918,4.968,4.968,0,0,1,9.533,0,24.85,24.85,0,0,1,3.418.918,4.969,4.969,0,0,1,8.255,4.782,25.346,25.346,0,0,1,2.49,2.491,4.968,4.968,0,0,1,4.782,8.254,24.746,24.746,0,0,1,.918,3.418,4.968,4.968,0,0,1,0,9.534Zm73.83,0a24.888,24.888,0,0,1-.918,3.418,4.979,4.979,0,0,1-4.8,8.27,25.35,25.35,0,0,1-2.475,2.474,4.983,4.983,0,0,1-8.276,4.789,24.7,24.7,0,0,1-3.4.911,4.968,4.968,0,0,1-9.533,0,24.774,24.774,0,0,1-3.4-.911,4.982,4.982,0,0,1-8.275-4.789,25.361,25.361,0,0,1-2.476-2.474,4.981,4.981,0,0,1-4.8-8.27,25.031,25.031,0,0,1-.918-3.418,4.968,4.968,0,0,1,0-9.534,24.993,24.993,0,0,1,.918-3.418,4.969,4.969,0,0,1,4.783-8.255,25.316,25.316,0,0,1,2.489-2.489,4.969,4.969,0,0,1,8.255-4.783,24.811,24.811,0,0,1,3.418-.918,4.968,4.968,0,0,1,9.533,0,24.863,24.863,0,0,1,3.419.918,4.969,4.969,0,0,1,8.255,4.783,25.305,25.305,0,0,1,2.488,2.489,4.969,4.969,0,0,1,4.783,8.255,24.85,24.85,0,0,1,.918,3.418,4.968,4.968,0,0,1,0,9.534Zm73.831,0a24.746,24.746,0,0,1-.918,3.418,4.979,4.979,0,0,1-4.8,8.27,25.161,25.161,0,0,1-2.477,2.475,4.982,4.982,0,0,1-8.274,4.788,24.7,24.7,0,0,1-3.4.911,4.968,4.968,0,0,1-9.533,0,24.749,24.749,0,0,1-3.4-.911,4.981,4.981,0,0,1-8.273-4.788,25.281,25.281,0,0,1-2.478-2.475,4.981,4.981,0,0,1-4.8-8.27,24.891,24.891,0,0,1-.919-3.418,4.969,4.969,0,0,1,0-9.534,24.891,24.891,0,0,1,.919-3.418,4.969,4.969,0,0,1,4.782-8.255,25.129,25.129,0,0,1,2.491-2.49,4.968,4.968,0,0,1,8.254-4.782,24.811,24.811,0,0,1,3.418-.918,4.968,4.968,0,0,1,9.533,0,24.811,24.811,0,0,1,3.418.918,4.968,4.968,0,0,1,8.254,4.782,25.129,25.129,0,0,1,2.491,2.49,4.969,4.969,0,0,1,4.782,8.255,24.746,24.746,0,0,1,.918,3.418,4.968,4.968,0,0,1,0,9.534Z"/><path d="M279.529,394.609a15.09,15.09,0,1,0,15.09,15.09A15.106,15.106,0,0,0,279.529,394.609Z"/><path d="M427.19,394.609a15.09,15.09,0,1,0,15.09,15.09A15.106,15.106,0,0,0,427.19,394.609Z"/><path d="M81.947,285.288a5,5,0,0,0-6.78,2.007,16.505,16.505,0,1,1-18.52-23.876,11.917,11.917,0,0,0,9.006-11.614V238.924h6.306a9.01,9.01,0,0,0,9-9V204.451a9.01,9.01,0,0,0-9-9h-7.6V86.2a17.655,17.655,0,0,0,20.21-13.8l93.579,66.543,5.795-8.149L81.216,57.742a17.781,17.781,0,1,0-26.86,23.226V195.451H49.349a9.01,9.01,0,0,0-9,9v25.473a9.01,9.01,0,0,0,9,9h6.3v12.881a1.96,1.96,0,0,1-1.424,1.911,26.5,26.5,0,0,0,5.383,52.2q.528.021,1.051.021a26.363,26.363,0,0,0,23.291-13.867A5,5,0,0,0,81.947,285.288Z"/></svg>
