<?xml version="1.0" encoding="iso-8859-1"?>
<!-- Generator: Adobe Illustrator 19.0.0, SVG Export Plug-In . SVG Version: 6.00 Build 0)  -->
<svg version="1.1" id="Capa_1" xmlns="http://www.w3.org/2000/svg" xmlns:xlink="http://www.w3.org/1999/xlink" x="0px" y="0px"
	 viewBox="0 0 511.993 511.993" style="enable-background:new 0 0 511.993 511.993;" xml:space="preserve" fill="#fff">
<g>
	<g>
		<path d="M505.446,89.037c-1.843-5.608-6.267-9.984-11.894-11.754c-5.645-1.788-11.772-0.732-16.483,2.813l-50.762,38.074
			L394.255,86.12l37.232-51.433c3.424-4.723,4.388-10.789,2.6-16.343c-1.782-5.547-6.103-9.917-11.638-11.76
			C376.46-8.74,324.539,3.527,290.114,37.952c-50.664,51.378-50.579,133.898,0.177,183.952
			c25.497,25.137,58.842,37.708,92.113,37.708c33.314,0,66.549-12.602,91.747-37.806c0.037-0.043,0.085-0.085,0.128-0.128
			C508.796,186.466,520.739,135.643,505.446,89.037z M448.197,195.992c-36.189,36.109-95.476,36.054-132.196-0.159
			c-36.384-35.877-36.299-95.171,0.092-132.08c17.582-17.576,41.583-27.09,65.872-27.09c0.952,0,1.91,0.012,2.856,0.055
			l-29.378,40.589c-5.273,7.287-4.473,17.325,1.886,23.684l54.314,54.314c6.438,6.432,16.648,7.165,23.928,1.697l39.759-29.818
			C476.043,152.388,466.541,177.238,448.197,195.992z"/>
	</g>
</g>
<g>
	<g>
		<path d="M349.401,227.042L114.449,461.994c-17.771,17.759-46.673,17.759-64.432,0c-8.641-8.641-13.401-20.084-13.401-32.216
			c0-12.126,4.76-23.568,13.401-32.216l234.336-234.342l-25.887-25.887L24.13,371.675C8.568,387.231,0,407.87,0,429.778
			c0,21.915,8.568,42.554,24.13,58.103c16.019,16.019,37.055,24.032,58.103,24.032c21.036,0,42.09-8.007,58.103-24.032
			L375.288,252.93L349.401,227.042z"/>
	</g>
</g>
<g>
	<g>
		<path d="M102.372,408.425c-10.375-10.374-26.852-10.374-37.226,0c-5.492,5.492-7.933,11.595-7.933,18.918
			s3.051,14.036,7.933,18.918c5.492,5.492,12.205,7.933,18.918,7.933c6.713,0,13.426-2.441,18.308-8.544
			C112.746,435.277,112.746,418.8,102.372,408.425z"/>
	</g>
</g>
<g>
</g>
<g>
</g>
<g>
</g>
<g>
</g>
<g>
</g>
<g>
</g>
<g>
</g>
<g>
</g>
<g>
</g>
<g>
</g>
<g>
</g>
<g>
</g>
<g>
</g>
<g>
</g>
<g>
</g>
</svg>
